<?xml version="1.0" encoding="utf-8"?>
<!-- Generator: Adobe Illustrator 16.0.0, SVG Export Plug-In . SVG Version: 6.00 Build 0)  -->
<!DOCTYPE svg PUBLIC "-//W3C//DTD SVG 1.1//EN" "http://www.w3.org/Graphics/SVG/1.1/DTD/svg11.dtd">
<svg version="1.1" id="survey" xmlns="http://www.w3.org/2000/svg" xmlns:xlink="http://www.w3.org/1999/xlink" x="0px" y="0px"
	 width="360px" height="149px" viewBox="0 0 360 149" enable-background="new 0 0 360 149" xml:space="preserve">
<g>
	
		<image overflow="visible" opacity="0.2" enable-background="new    " width="363" height="155" xlink:href="5F1FD6F.png"  transform="matrix(1.0083 0 0 1.0083 -2.4998 -3.4839)">
	</image>
	<g>
		<path fill="#FFFFEC" d="M354.5,132c0,5.521-3.979,10.5-9.5,10.5H16c-5.523,0-10.5-4.979-10.5-10.5V31c0-5.523,4.977-9.5,10.5-9.5
			h285l13-20l5.664,20H345c5.521,0,9.5,3.977,9.5,9.5V132z"/>
		<path fill="none" stroke="#FFE9BB" stroke-miterlimit="10" d="M354.5,132c0,5.521-3.979,10.5-9.5,10.5H16
			c-5.523,0-10.5-4.979-10.5-10.5V31c0-5.523,4.977-9.5,10.5-9.5h285l13-20l5.664,20H345c5.521,0,9.5,3.977,9.5,9.5V132z"/>
	</g>
</g>
<g id="bigmap">
	<text transform="matrix(1 0 0 1 269.8752 125.25)" font-family="'AdobeSongStd-Light-GBpc-EUC-H'" font-size="11">查看定位大图</text>
	<g>
		<circle fill="#68B4ED" cx="302.875" cy="71.25" r="33.875"/>
		<path fill="#EFF1F4" d="M302.875,37.375c-5.8,0-11.257,1.46-16.03,4.029l12.303,63.513c1.224,0.134,2.466,0.208,3.729,0.208
			c18.705,0,33.875-15.167,33.875-33.875S321.58,37.375,302.875,37.375z"/>
		<path fill="#FFD300" d="M289.762,40.025c-0.995,0.419-1.973,0.87-2.917,1.378l12.303,63.513c1.06,0.116,2.135,0.177,3.222,0.193
			L289.762,40.025z"/>
		<path fill="#00A651" d="M275.106,90.641c6.125,8.754,16.274,14.484,27.77,14.484c18.707,0,33.875-15.167,33.875-33.875
			c0-1.912-0.168-3.785-0.472-5.611L275.106,90.641z"/>
		<polygon fill="#009E4D" points="332.58,87.615 333.823,84.834 324.449,88.273 325.429,87.848 321.766,74.219 319.694,74.864 
			323.387,88.665 314.739,91.839 313.766,88.219 313.05,88.441 313.031,88.413 296.161,94.1 294.218,85.639 292.249,86.469 
			296.303,104.486 298.633,104.861 296.653,96.239 312.24,90.909 315.405,102.732 317.429,101.848 315.289,93.898 315.31,93.939 		
			"/>
		<path fill="#FFD300" d="M336.615,68.309c-0.08-0.9-0.189-1.79-0.339-2.669l-61.172,25.002c0.519,0.734,1.07,1.441,1.645,2.137
			L336.615,68.309z"/>
		<path opacity="0.1" enable-background="new    " d="M319.627,79.218c-1.383,2.468-7.684,6.782-12.396,9.407
			c-1.646-2.859-2.89-7.58-1.51-10.045c1.38-2.469,5.613-4.326,9.452-4.146C319.014,74.607,321.007,76.752,319.627,79.218z"/>
		<polygon fill="#E3E5E8" points="330.955,52.305 329.528,50.341 314.138,55.164 314.325,55.07 307.125,37.64 304.551,37.358 
			307.81,45.131 291.761,50.341 292.172,52.467 308.694,47.24 312.263,55.751 308.684,56.873 309.422,58.912 320.289,55.577 
			325.854,69.9 327.867,69.076 322.316,54.957 		"/>
		<path fill="#FFD300" d="M317,67.125c0,5.454-5.385,15.375-9.875,21.5c-4.5-6-9.875-16.046-9.875-21.5s4.421-9.875,9.875-9.875
			C312.576,57.25,317,61.671,317,67.125z"/>
		<circle fill="#FFFFFF" stroke="#FBAE0E" stroke-miterlimit="10" cx="307.125" cy="67.125" r="4.144"/>
	</g>
</g>
<g>
	<text transform="matrix(1 0 0 1 20.9988 46.333)" fill="#F15A24" font-family="'AdobeSongStd-Light-GBpc-EUC-H'" font-size="14">停车功能调研（仅一个问题）：</text>
	<text transform="matrix(1 0 0 1 18.9983 69.6436)" font-family="'ArialMT'" font-size="12">  </text>
	<text transform="matrix(1 0 0 1 18.9983 69.2178)" fill="#333333" font-family="'AdobeSongStd-Light-GBpc-EUC-H'" font-size="15">系统识别到您的停车位置是否正确？</text>
	<text transform="matrix(1 0 0 1 198.9983 69.6436)" font-family="'ArialMT'" font-size="12">  </text>
	<text transform="matrix(1 0 0 1 18.9983 86.6436)" fill="#333333" font-family="'AdobeSongStd-Light-GBpc-EUC-H'" font-size="12">点击右侧按钮，查看定位大图确认具体位置</text>
	<text transform="matrix(1 0 0 1 189.9983 86.6436)" font-family="'ArialMT'" font-size="12">  </text>
</g>
<g id="error">
	<path fill="#B8BABD" d="M212.416,119.91c0,5.521-4.479,10-10,10H144.75c-5.523,0-10-4.479-10-10v-6.13c0-5.522,4.477-10,10-10
		h57.666c5.521,0,10,4.478,10,10V119.91z"/>
	<circle fill="#FFFFFF" cx="149.557" cy="116.846" r="8.757"/>
	<line fill="none" stroke="#B7B8B8" stroke-miterlimit="10" x1="145.242" y1="120.18" x2="153.872" y2="113.512"/>
	
		<text transform="matrix(1 0 0 1 166.3743 121.2275)" fill="#FFFFFF" font-family="'AdobeSongStd-Light-GBpc-EUC-H'" font-size="14">错误</text>
	<line fill="none" stroke="#B7B8B8" stroke-miterlimit="10" x1="145.242" y1="120.18" x2="153.872" y2="113.512"/>
	<line fill="none" stroke="#B7B8B8" stroke-miterlimit="10" x1="153.872" y1="120.18" x2="145.242" y2="113.512"/>
</g>
<g id="correct">
	<path fill="#ED747E" d="M100.167,119.91c0,5.521-4.479,10-10,10H32.5c-5.523,0-10-4.479-10-10v-6.13c0-5.522,4.477-10,10-10h57.667
		c5.521,0,10,4.478,10,10V119.91z"/>
	<text transform="matrix(1 0 0 1 53.3743 121.2275)" fill="#FFFFFF" font-family="'AdobeSongStd-Light-GBpc-EUC-H'" font-size="14">正确</text>
	<circle fill="#FFFFFF" cx="37.307" cy="116.845" r="8.757"/>
	<polyline fill="none" stroke="#ED747E" stroke-miterlimit="10" points="32.912,116.846 35.787,120.404 42.537,115.154 	"/>
</g>
</svg>
